<svg width="65" height="65" viewBox="0 0 65 65" fill="none" xmlns="http://www.w3.org/2000/svg">
<path fill-rule="evenodd" clip-rule="evenodd" d="M32.5 65C50.4493 65 65 50.4493 65 32.5C65 14.5507 50.4493 0 32.5 0C14.5507 0 0 14.5507 0 32.5C0 50.4493 14.5507 65 32.5 65Z" fill="#455B71"/>
<path fill-rule="evenodd" clip-rule="evenodd" d="M33.313 26.8617L33.3152 23.154C33.316 21.8088 34.4066 20.7188 35.7518 20.7188C37.097 20.7188 38.1875 21.8092 38.1875 23.1544V31.4751L39.2247 30.3428C40.1495 29.3333 41.6917 29.1957 42.7805 30.0257C43.8701 30.8562 44.1355 32.3861 43.3894 33.5351L38.7901 40.6176C37.1418 43.1559 34.3209 44.6875 31.2944 44.6875H30.0405C26.2344 44.6875 23.089 41.7189 22.869 37.9191C22.7896 36.5481 22.75 35.1003 22.75 33.5755C22.75 30.4987 22.9113 27.9481 23.2364 25.9186C23.4539 24.5611 24.6251 23.5625 26 23.5625C27.3462 23.5625 28.4375 24.6538 28.4375 26V27.1664L33.313 26.8617ZM32.6096 34.3537C32.3032 34.3119 31.9956 34.2813 31.6875 34.2618V28.5914L33.3125 28.4899V33.74C33.3125 33.7679 33.3106 33.7958 33.3068 33.8235C33.2607 34.1624 32.9485 34.3998 32.6096 34.3537ZM30.0625 28.693V34.2618C29.7544 34.2813 29.4468 34.3119 29.1404 34.3537C29.1127 34.3574 29.0848 34.3593 29.0569 34.3593C28.7148 34.3593 28.4375 34.082 28.4375 33.74V28.7946L30.0625 28.693ZM34.9375 33.7408V27.6334V27.6203L34.9402 23.1558C34.9404 22.7077 35.3037 22.3446 35.7518 22.3446C36.1995 22.3446 36.5625 22.7076 36.5625 23.1553V31.4759C36.5625 32.3734 37.29 33.1009 38.1875 33.1009C38.6432 33.1009 39.0779 32.9096 39.3857 32.5736L40.423 31.4413C40.7799 31.0517 41.3751 30.9986 41.7954 31.3189C42.209 31.6341 42.3097 32.2148 42.0265 32.6509L37.4272 39.7335C36.0786 41.8102 33.7706 43.0634 31.2944 43.0634H30.0405C27.0954 43.0634 24.6615 40.7663 24.4913 37.8261C24.4138 36.4872 24.375 35.0706 24.375 33.5764C24.375 30.5791 24.5311 28.1108 24.841 26.1765C24.9322 25.6071 25.4234 25.1884 26 25.1884C26.4487 25.1884 26.8125 25.5521 26.8125 26.0009V28.0246V28.0381V33.7408C26.8125 34.9803 27.8173 35.9852 29.0569 35.9852C29.1581 35.9852 29.2593 35.9783 29.3596 35.9647C30.3652 35.8278 31.3848 35.8278 32.3904 35.9647C33.6186 36.1319 34.7498 35.2718 34.917 34.0436C34.9306 33.9432 34.9375 33.8421 34.9375 33.7408Z" fill="black"/>
<mask id="mask0_15_62" style="mask-type:luminance" maskUnits="userSpaceOnUse" x="22" y="20" width="22" height="25">
<path fill-rule="evenodd" clip-rule="evenodd" d="M33.313 26.8617L33.3152 23.154C33.316 21.8088 34.4066 20.7188 35.7518 20.7188C37.097 20.7188 38.1875 21.8092 38.1875 23.1544V31.4751L39.2247 30.3428C40.1495 29.3333 41.6917 29.1957 42.7805 30.0257C43.8701 30.8562 44.1355 32.3861 43.3894 33.5351L38.7901 40.6176C37.1418 43.1559 34.3209 44.6875 31.2944 44.6875H30.0405C26.2344 44.6875 23.089 41.7189 22.869 37.9191C22.7896 36.5481 22.75 35.1003 22.75 33.5755C22.75 30.4987 22.9113 27.9481 23.2364 25.9186C23.4539 24.5611 24.6251 23.5625 26 23.5625C27.3462 23.5625 28.4375 24.6538 28.4375 26V27.1664L33.313 26.8617ZM32.6096 34.3537C32.3032 34.3119 31.9956 34.2813 31.6875 34.2618V28.5914L33.3125 28.4899V33.74C33.3125 33.7679 33.3106 33.7958 33.3068 33.8235C33.2607 34.1624 32.9485 34.3998 32.6096 34.3537ZM30.0625 28.693V34.2618C29.7544 34.2813 29.4468 34.3119 29.1404 34.3537C29.1127 34.3574 29.0848 34.3593 29.0569 34.3593C28.7148 34.3593 28.4375 34.082 28.4375 33.74V28.7946L30.0625 28.693ZM34.9375 33.7408V27.6334V27.6203L34.9402 23.1558C34.9404 22.7077 35.3037 22.3446 35.7518 22.3446C36.1995 22.3446 36.5625 22.7076 36.5625 23.1553V31.4759C36.5625 32.3734 37.29 33.1009 38.1875 33.1009C38.6432 33.1009 39.0779 32.9096 39.3857 32.5736L40.423 31.4413C40.7799 31.0517 41.3751 30.9986 41.7954 31.3189C42.209 31.6341 42.3097 32.2148 42.0265 32.6509L37.4272 39.7335C36.0786 41.8102 33.7706 43.0634 31.2944 43.0634H30.0405C27.0954 43.0634 24.6615 40.7663 24.4913 37.8261C24.4138 36.4872 24.375 35.0706 24.375 33.5764C24.375 30.5791 24.5311 28.1108 24.841 26.1765C24.9322 25.6071 25.4234 25.1884 26 25.1884C26.4487 25.1884 26.8125 25.5521 26.8125 26.0009V28.0246V28.0381V33.7408C26.8125 34.9803 27.8173 35.9852 29.0569 35.9852C29.1581 35.9852 29.2593 35.9783 29.3596 35.9647C30.3652 35.8278 31.3848 35.8278 32.3904 35.9647C33.6186 36.1319 34.7498 35.2718 34.917 34.0436C34.9306 33.9432 34.9375 33.8421 34.9375 33.7408Z" fill="white"/>
</mask>
<g mask="url(#mask0_15_62)">
<rect x="16.25" y="16.25" width="32.5" height="32.5" fill="white"/>
</g>
</svg>
