<svg width="65" height="65" viewBox="0 0 65 65" fill="none" xmlns="http://www.w3.org/2000/svg">
<path fill-rule="evenodd" clip-rule="evenodd" d="M32.5 65C50.4493 65 65 50.4493 65 32.5C65 14.5507 50.4493 0 32.5 0C14.5507 0 0 14.5507 0 32.5C0 50.4493 14.5507 65 32.5 65Z" fill="#455B71"/>
<path fill-rule="evenodd" clip-rule="evenodd" d="M34.9375 20.3125C33.9668 20.3125 33.0955 20.7381 32.5 21.4128C31.9045 20.7381 31.0332 20.3125 30.0625 20.3125C28.5249 20.3125 27.2367 21.3803 26.8989 22.8147C25.0017 23.157 23.5625 24.8167 23.5625 26.8125C23.5625 27.0704 23.5867 27.3246 23.6337 27.5724C22.5839 28.3248 21.9375 29.5436 21.9375 30.875C21.9375 31.8544 22.284 32.7528 22.8612 33.4543C22.2643 34.3672 21.9375 35.4404 21.9375 36.5625C21.9375 38.8551 23.3064 40.8868 25.3535 41.7782C25.8505 43.4602 27.4069 44.6875 29.25 44.6875C30.5789 44.6875 31.7588 44.0494 32.5 43.0629C33.2412 44.0494 34.4211 44.6875 35.75 44.6875C37.593 44.6875 39.1494 43.4602 39.6465 41.7783C41.6937 40.887 43.0627 38.8552 43.0627 36.5625C43.0627 35.4403 42.7359 34.3671 42.1389 33.4541C42.716 32.7526 43.0625 31.8543 43.0625 30.875C43.0625 29.5436 42.4161 28.3248 41.3663 27.5724C41.4133 27.3246 41.4375 27.0704 41.4375 26.8125C41.4375 24.8167 39.9983 23.157 38.1011 22.8147C37.7633 21.3803 36.4751 20.3125 34.9375 20.3125ZM31.6879 34.1267C31.6879 33.2292 30.9604 32.5017 30.0629 32.5017C29.8247 32.5017 29.5952 32.5525 29.3847 32.6493C28.9771 32.8369 28.4946 32.6585 28.307 32.2509C28.1194 31.8433 28.2978 31.3607 28.7054 31.1731C29.1278 30.9787 29.589 30.8767 30.0629 30.8767C30.6549 30.8767 31.2099 31.035 31.6879 31.3115V23.5642C31.6879 22.6667 30.9604 21.9392 30.0629 21.9392C29.1655 21.9392 28.4379 22.6667 28.4379 23.5642C28.4379 24.0129 28.0742 24.3767 27.6254 24.3767C26.2792 24.3767 25.1879 25.468 25.1879 26.8142C25.1879 27.4806 25.4556 28.1025 25.9232 28.5588C26.2443 28.8722 26.2506 29.3866 25.9372 29.7078C25.6238 30.0289 25.1094 30.0352 24.7882 29.7218C24.6038 29.5418 24.4379 29.3461 24.2922 29.1374C23.8342 29.587 23.5629 30.2079 23.5629 30.8767C23.5629 32.2229 24.6542 33.3142 26.0004 33.3142C26.4492 33.3142 26.8129 33.678 26.8129 34.1267C26.8129 34.5754 26.4492 34.9392 26.0004 34.9392C25.3274 34.9392 24.6927 34.7755 24.1338 34.4859C23.7637 35.1059 23.5629 35.8189 23.5629 36.5642C23.5629 37.9052 24.2187 39.1214 25.2589 39.8675C25.3693 39.2842 25.6061 38.7345 25.9532 38.253C26.2157 37.889 26.7235 37.8066 27.0875 38.0691C27.4515 38.3315 27.5338 38.8393 27.2714 39.2033C26.9747 39.6148 26.8129 40.1075 26.8129 40.6267C26.8129 41.9729 27.9042 43.0642 29.2504 43.0642C30.5966 43.0642 31.6879 41.9729 31.6879 40.6267V34.1267ZM33.3125 27.4299C33.8935 27.041 34.5921 26.8142 35.3437 26.8142C35.7925 26.8142 36.1562 27.178 36.1562 27.6267C36.1562 28.0754 35.7925 28.4392 35.3437 28.4392C34.2219 28.4392 33.3125 29.3486 33.3125 30.4704V35.0779C33.5666 34.9881 33.8401 34.9392 34.125 34.9392C34.5737 34.9392 34.9375 35.303 34.9375 35.7517C34.9375 36.2004 34.5737 36.5642 34.125 36.5642C33.6763 36.5642 33.3125 36.928 33.3125 37.3767V40.6267C33.3125 41.9729 34.4038 43.0642 35.75 43.0642C37.0962 43.0642 38.1875 41.9729 38.1875 40.6267C38.1875 40.1075 38.0257 39.6148 37.729 39.2033C37.4666 38.8393 37.5489 38.3315 37.9129 38.0691C38.2769 37.8066 38.7848 37.889 39.0472 38.253C39.3943 38.7345 39.6312 39.2842 39.7416 39.8677C40.7819 39.1215 41.4377 37.9053 41.4377 36.5642C41.4377 35.8189 41.2369 35.1058 40.8668 34.4858C40.3079 34.7755 39.673 34.9392 39 34.9392C38.5513 34.9392 38.1875 34.5754 38.1875 34.1267C38.1875 33.678 38.5513 33.3142 39 33.3142C40.3462 33.3142 41.4375 32.2229 41.4375 30.8767C41.4375 30.2079 41.1662 29.587 40.7082 29.1374C40.5625 29.3461 40.3966 29.5418 40.2122 29.7218C39.8911 30.0352 39.3766 30.0289 39.0632 29.7078C38.7498 29.3866 38.7561 28.8722 39.0772 28.5588C39.5449 28.1025 39.8125 27.4806 39.8125 26.8142C39.8125 25.468 38.7212 24.3767 37.375 24.3767C37.1506 24.3767 36.9475 24.2857 36.8005 24.1387C36.6534 23.9917 36.5625 23.7886 36.5625 23.5642C36.5625 22.6667 35.835 21.9392 34.9375 21.9392C34.04 21.9392 33.3125 22.6667 33.3125 23.5642V27.4299Z" fill="black"/>
<mask id="mask0_15_149" style="mask-type:luminance" maskUnits="userSpaceOnUse" x="21" y="20" width="23" height="25">
<path fill-rule="evenodd" clip-rule="evenodd" d="M34.9375 20.3125C33.9668 20.3125 33.0955 20.7381 32.5 21.4128C31.9045 20.7381 31.0332 20.3125 30.0625 20.3125C28.5249 20.3125 27.2367 21.3803 26.8989 22.8147C25.0017 23.157 23.5625 24.8167 23.5625 26.8125C23.5625 27.0704 23.5867 27.3246 23.6337 27.5724C22.5839 28.3248 21.9375 29.5436 21.9375 30.875C21.9375 31.8544 22.284 32.7528 22.8612 33.4543C22.2643 34.3672 21.9375 35.4404 21.9375 36.5625C21.9375 38.8551 23.3064 40.8868 25.3535 41.7782C25.8505 43.4602 27.4069 44.6875 29.25 44.6875C30.5789 44.6875 31.7588 44.0494 32.5 43.0629C33.2412 44.0494 34.4211 44.6875 35.75 44.6875C37.593 44.6875 39.1494 43.4602 39.6465 41.7783C41.6937 40.887 43.0627 38.8552 43.0627 36.5625C43.0627 35.4403 42.7359 34.3671 42.1389 33.4541C42.716 32.7526 43.0625 31.8543 43.0625 30.875C43.0625 29.5436 42.4161 28.3248 41.3663 27.5724C41.4133 27.3246 41.4375 27.0704 41.4375 26.8125C41.4375 24.8167 39.9983 23.157 38.1011 22.8147C37.7633 21.3803 36.4751 20.3125 34.9375 20.3125ZM31.6879 34.1267C31.6879 33.2292 30.9604 32.5017 30.0629 32.5017C29.8247 32.5017 29.5952 32.5525 29.3847 32.6493C28.9771 32.8369 28.4946 32.6585 28.307 32.2509C28.1194 31.8433 28.2978 31.3607 28.7054 31.1731C29.1278 30.9787 29.589 30.8767 30.0629 30.8767C30.6549 30.8767 31.2099 31.035 31.6879 31.3115V23.5642C31.6879 22.6667 30.9604 21.9392 30.0629 21.9392C29.1655 21.9392 28.4379 22.6667 28.4379 23.5642C28.4379 24.0129 28.0742 24.3767 27.6254 24.3767C26.2792 24.3767 25.1879 25.468 25.1879 26.8142C25.1879 27.4806 25.4556 28.1025 25.9232 28.5588C26.2443 28.8722 26.2506 29.3866 25.9372 29.7078C25.6238 30.0289 25.1094 30.0352 24.7882 29.7218C24.6038 29.5418 24.4379 29.3461 24.2922 29.1374C23.8342 29.587 23.5629 30.2079 23.5629 30.8767C23.5629 32.2229 24.6542 33.3142 26.0004 33.3142C26.4492 33.3142 26.8129 33.678 26.8129 34.1267C26.8129 34.5754 26.4492 34.9392 26.0004 34.9392C25.3274 34.9392 24.6927 34.7755 24.1338 34.4859C23.7637 35.1059 23.5629 35.8189 23.5629 36.5642C23.5629 37.9052 24.2187 39.1214 25.2589 39.8675C25.3693 39.2842 25.6061 38.7345 25.9532 38.253C26.2157 37.889 26.7235 37.8066 27.0875 38.0691C27.4515 38.3315 27.5338 38.8393 27.2714 39.2033C26.9747 39.6148 26.8129 40.1075 26.8129 40.6267C26.8129 41.9729 27.9042 43.0642 29.2504 43.0642C30.5966 43.0642 31.6879 41.9729 31.6879 40.6267V34.1267ZM33.3125 27.4299C33.8935 27.041 34.5921 26.8142 35.3437 26.8142C35.7925 26.8142 36.1562 27.178 36.1562 27.6267C36.1562 28.0754 35.7925 28.4392 35.3437 28.4392C34.2219 28.4392 33.3125 29.3486 33.3125 30.4704V35.0779C33.5666 34.9881 33.8401 34.9392 34.125 34.9392C34.5737 34.9392 34.9375 35.303 34.9375 35.7517C34.9375 36.2004 34.5737 36.5642 34.125 36.5642C33.6763 36.5642 33.3125 36.928 33.3125 37.3767V40.6267C33.3125 41.9729 34.4038 43.0642 35.75 43.0642C37.0962 43.0642 38.1875 41.9729 38.1875 40.6267C38.1875 40.1075 38.0257 39.6148 37.729 39.2033C37.4666 38.8393 37.5489 38.3315 37.9129 38.0691C38.2769 37.8066 38.7848 37.889 39.0472 38.253C39.3943 38.7345 39.6312 39.2842 39.7416 39.8677C40.7819 39.1215 41.4377 37.9053 41.4377 36.5642C41.4377 35.8189 41.2369 35.1058 40.8668 34.4858C40.3079 34.7755 39.673 34.9392 39 34.9392C38.5513 34.9392 38.1875 34.5754 38.1875 34.1267C38.1875 33.678 38.5513 33.3142 39 33.3142C40.3462 33.3142 41.4375 32.2229 41.4375 30.8767C41.4375 30.2079 41.1662 29.587 40.7082 29.1374C40.5625 29.3461 40.3966 29.5418 40.2122 29.7218C39.8911 30.0352 39.3766 30.0289 39.0632 29.7078C38.7498 29.3866 38.7561 28.8722 39.0772 28.5588C39.5449 28.1025 39.8125 27.4806 39.8125 26.8142C39.8125 25.468 38.7212 24.3767 37.375 24.3767C37.1506 24.3767 36.9475 24.2857 36.8005 24.1387C36.6534 23.9917 36.5625 23.7886 36.5625 23.5642C36.5625 22.6667 35.835 21.9392 34.9375 21.9392C34.04 21.9392 33.3125 22.6667 33.3125 23.5642V27.4299Z" fill="white"/>
</mask>
<g mask="url(#mask0_15_149)">
<rect x="16.25" y="16.25" width="32.5" height="32.5" fill="white"/>
</g>
</svg>
