<svg width="65" height="65" viewBox="0 0 65 65" fill="none" xmlns="http://www.w3.org/2000/svg">
<path fill-rule="evenodd" clip-rule="evenodd" d="M32.5 65C50.4493 65 65 50.4493 65 32.5C65 14.5507 50.4493 0 32.5 0C14.5507 0 0 14.5507 0 32.5C0 50.4493 14.5507 65 32.5 65Z" fill="#455B71"/>
<path fill-rule="evenodd" clip-rule="evenodd" d="M44.4096 32.2594C44.42 32.2053 44.4243 32.151 44.4233 32.0973C44.4133 25.7362 39.2561 20.5819 32.8938 20.5769H32.8846H32.8754C26.5131 20.5819 21.3558 25.7362 21.3459 32.0974C21.3448 32.1521 21.3494 32.2074 21.3602 32.2624L21.362 32.2717C21.3713 32.3161 21.3847 32.3604 21.4023 32.404C21.4179 32.4424 21.4362 32.4789 21.4569 32.5133C21.5148 32.6089 21.5929 32.6909 21.6854 32.7533C21.7779 32.8156 21.8832 32.8572 21.9936 32.875C22.0333 32.8813 22.0739 32.8846 22.1154 32.8846C22.1649 32.8846 22.2134 32.8799 22.2604 32.871L22.2624 32.8706C22.317 32.86 22.3695 32.8437 22.4193 32.8222C23.5845 32.3536 25.0213 32.1154 26.7307 32.1154C27.7267 32.1154 28.3093 32.1997 29.3212 32.4383L29.4951 32.4794C30.4828 32.7126 31.1858 32.8313 32.1154 32.87V39.8077C32.1154 41.0822 31.0822 42.1154 29.8077 42.1154C28.5332 42.1154 27.5 41.0822 27.5 39.8077C27.5 39.3829 27.1556 39.0385 26.7307 39.0385C26.3059 39.0385 25.9615 39.3829 25.9615 39.8077C25.9615 41.9319 27.6835 43.6539 29.8077 43.6539C31.9318 43.6539 33.6538 41.9319 33.6538 39.8077V32.87C34.5875 32.8311 35.2986 32.7121 36.2899 32.4797L36.4921 32.4322C37.4883 32.1991 38.0702 32.1154 39.0386 32.1154C40.7195 32.1154 42.1577 32.3539 43.3554 32.8246C43.4018 32.8441 43.4505 32.8593 43.5011 32.8694L43.5098 32.8712C43.5565 32.88 43.6046 32.8846 43.6538 32.8846C43.6962 32.8846 43.7378 32.8812 43.7783 32.8746C43.8887 32.8564 43.994 32.8143 44.0864 32.7516C44.1787 32.6887 44.2566 32.6063 44.3141 32.5103C44.3351 32.475 44.3536 32.4376 44.3692 32.3982C44.3864 32.3547 44.3993 32.3106 44.4083 32.2663L44.4096 32.2594ZM35.3572 22.4234C39.3454 23.4378 42.3766 26.8492 42.8267 31.0336C41.6969 30.7283 40.4339 30.5769 39.0386 30.5769L39.0181 30.5769C38.8486 27.4104 37.6214 24.6836 35.3572 22.4234ZM22.9429 31.0289C24.0582 30.7265 25.321 30.5769 26.7307 30.5769L26.7511 30.5769C26.9207 27.4104 28.1479 24.6836 30.4121 22.4234C26.4253 23.4374 23.3948 26.8466 22.9429 31.0289ZM32.8846 22.303C35.7853 24.5289 37.3059 27.3031 37.4826 30.6731C37.0689 30.7304 36.6486 30.8155 36.1415 30.9343L35.9387 30.9819C34.7997 31.2489 34.1085 31.3462 32.8846 31.3462C31.662 31.3462 30.9831 31.25 29.8487 30.9821L29.6744 30.9409C29.1477 30.8167 28.7153 30.7288 28.2868 30.6705C28.4641 27.3017 29.9847 24.5283 32.8846 22.303Z" fill="white"/>
<mask id="mask0_16_28" style="mask-type:luminance" maskUnits="userSpaceOnUse" x="21" y="20" width="24" height="24">
<path fill-rule="evenodd" clip-rule="evenodd" d="M44.4096 32.2594C44.42 32.2053 44.4243 32.151 44.4233 32.0973C44.4133 25.7362 39.2561 20.5819 32.8938 20.5769H32.8846H32.8754C26.5131 20.5819 21.3558 25.7362 21.3459 32.0974C21.3448 32.1521 21.3494 32.2074 21.3602 32.2624L21.362 32.2717C21.3713 32.3161 21.3847 32.3604 21.4023 32.404C21.4179 32.4424 21.4362 32.4789 21.4569 32.5133C21.5148 32.6089 21.5929 32.6909 21.6854 32.7533C21.7779 32.8156 21.8832 32.8572 21.9936 32.875C22.0333 32.8813 22.0739 32.8846 22.1154 32.8846C22.1649 32.8846 22.2134 32.8799 22.2604 32.871L22.2624 32.8706C22.317 32.86 22.3695 32.8437 22.4193 32.8222C23.5845 32.3536 25.0213 32.1154 26.7307 32.1154C27.7267 32.1154 28.3093 32.1997 29.3212 32.4383L29.4951 32.4794C30.4828 32.7126 31.1858 32.8313 32.1154 32.87V39.8077C32.1154 41.0822 31.0822 42.1154 29.8077 42.1154C28.5332 42.1154 27.5 41.0822 27.5 39.8077C27.5 39.3829 27.1556 39.0385 26.7307 39.0385C26.3059 39.0385 25.9615 39.3829 25.9615 39.8077C25.9615 41.9319 27.6835 43.6539 29.8077 43.6539C31.9318 43.6539 33.6538 41.9319 33.6538 39.8077V32.87C34.5875 32.8311 35.2986 32.7121 36.2899 32.4797L36.4921 32.4322C37.4883 32.1991 38.0702 32.1154 39.0386 32.1154C40.7195 32.1154 42.1577 32.3539 43.3554 32.8246C43.4018 32.8441 43.4505 32.8593 43.5011 32.8694L43.5098 32.8712C43.5565 32.88 43.6046 32.8846 43.6538 32.8846C43.6962 32.8846 43.7378 32.8812 43.7783 32.8746C43.8887 32.8564 43.994 32.8143 44.0864 32.7516C44.1787 32.6887 44.2566 32.6063 44.3141 32.5103C44.3351 32.475 44.3536 32.4376 44.3692 32.3982C44.3864 32.3547 44.3993 32.3106 44.4083 32.2663L44.4096 32.2594ZM35.3572 22.4234C39.3454 23.4378 42.3766 26.8492 42.8267 31.0336C41.6969 30.7283 40.4339 30.5769 39.0386 30.5769L39.0181 30.5769C38.8486 27.4104 37.6214 24.6836 35.3572 22.4234ZM22.9429 31.0289C24.0582 30.7265 25.321 30.5769 26.7307 30.5769L26.7511 30.5769C26.9207 27.4104 28.1479 24.6836 30.4121 22.4234C26.4253 23.4374 23.3948 26.8466 22.9429 31.0289ZM32.8846 22.303C35.7853 24.5289 37.3059 27.3031 37.4826 30.6731C37.0689 30.7304 36.6486 30.8155 36.1415 30.9343L35.9387 30.9819C34.7997 31.2489 34.1085 31.3462 32.8846 31.3462C31.662 31.3462 30.9831 31.25 29.8487 30.9821L29.6744 30.9409C29.1477 30.8167 28.7153 30.7288 28.2868 30.6705C28.4641 27.3017 29.9847 24.5283 32.8846 22.303Z" fill="white"/>
</mask>
<g mask="url(#mask0_16_28)">
<rect x="16.7307" y="16.7308" width="30.7692" height="30.7692" fill="white"/>
</g>
</svg>
