<svg width="118" height="118" viewBox="0 0 118 118" fill="none" xmlns="http://www.w3.org/2000/svg">
<g id="germany">
<path id="Vector" d="M78.6661 97.5256C98.3331 97.5256 98.3331 107.052 118 107.052V78.1927C98.3329 78.1927 98.3329 64.0533 78.6661 64.0533C68.8331 64.0533 59.3035 66.4345 54.3869 68.8161L59 102.288C63.9163 99.9068 68.8331 97.5256 78.6661 97.5256Z" fill="#FFB655"/>
<path id="Vector_2" d="M0 68.6663V97.5254C19.6661 97.5254 19.6661 107.052 39.332 107.052C49.1661 107.052 54.083 104.67 59 102.288V66.5096C54.083 68.8912 49.1661 71.2731 39.332 71.2731C19.6661 71.2731 19.6661 68.6663 0 68.6663Z" fill="#FFDE55"/>
<path id="Vector_3" d="M78.6661 35.1942C68.8331 35.1942 59.3035 37.5754 54.3869 39.9571L59 73.4292C63.9163 71.0477 68.8331 68.6663 78.6661 68.6663C98.3331 68.6663 98.3331 78.1927 118 78.1927V49.3337C98.3329 49.3337 98.3329 35.1942 78.6661 35.1942Z" fill="#D10050"/>
<path id="Vector_4" d="M39.332 42.4141C19.6659 42.4141 19.6659 39.8072 0 39.8072V68.6663C19.6661 68.6663 19.6661 78.1927 39.332 78.1927C49.1661 78.1927 54.083 75.8108 59 73.4292V37.6503C54.083 40.0322 49.1661 42.4141 39.332 42.4141Z" fill="#FF415B"/>
<path id="Vector_5" d="M118 49.3337V20.4744C98.3329 20.4744 98.3329 10.948 78.6661 10.948C68.8331 10.948 63.9166 13.3294 59 15.7108L54.3869 30.1409L59 44.5699C63.9163 42.1885 68.8331 39.807 78.6661 39.807C98.3329 39.8073 98.3329 49.3337 118 49.3337Z" fill="#04303E"/>
<path id="Vector_6" d="M39.332 20.4744C19.6661 20.4744 19.6661 10.948 0 10.948V39.807C19.6661 39.807 19.6661 49.3335 39.332 49.3335C49.1661 49.3335 54.083 46.9516 59 44.5699V15.7108C54.083 18.0925 49.1661 20.4744 39.332 20.4744Z" fill="#07485E"/>
</g>
</svg>
