<svg width="133" height="33" viewBox="0 0 133 33" fill="none" xmlns="http://www.w3.org/2000/svg">
<path d="M2.09 24C1.96333 24 1.85567 23.962 1.767 23.886C1.691 23.7973 1.653 23.6897 1.653 23.563V11.156C1.653 11.0167 1.691 10.909 1.767 10.833C1.85567 10.7443 1.96333 10.7 2.09 10.7H6.726C8.18267 10.7 9.32267 11.042 10.146 11.726C10.9693 12.41 11.381 13.398 11.381 14.69C11.381 15.6527 11.1403 16.4443 10.659 17.065C10.1903 17.6857 9.52533 18.1163 8.664 18.357L11.59 23.411C11.628 23.487 11.647 23.5567 11.647 23.62C11.647 23.7213 11.6027 23.81 11.514 23.886C11.438 23.962 11.3493 24 11.248 24H10.336C10.146 24 9.994 23.9557 9.88 23.867C9.77867 23.7783 9.68367 23.6517 9.595 23.487L6.84 18.661H3.515V23.563C3.515 23.6897 3.47067 23.7973 3.382 23.886C3.29333 23.962 3.18567 24 3.059 24H2.09ZM6.65 17.046C8.53733 17.046 9.481 16.2543 9.481 14.671C9.481 13.0877 8.53733 12.296 6.65 12.296H3.515V17.046H6.65ZM14.5402 24C14.4135 24 14.3059 23.962 14.2172 23.886C14.1412 23.7973 14.1032 23.6897 14.1032 23.563V11.156C14.1032 11.0167 14.1412 10.909 14.2172 10.833C14.3059 10.7443 14.4135 10.7 14.5402 10.7H22.3872C22.5139 10.7 22.6152 10.7443 22.6912 10.833C22.7799 10.909 22.8242 11.0167 22.8242 11.156V11.878C22.8242 12.0047 22.7862 12.1123 22.7102 12.201C22.6342 12.277 22.5265 12.315 22.3872 12.315H15.9272V16.476H21.9692C22.0959 16.476 22.1972 16.5203 22.2732 16.609C22.3619 16.685 22.4062 16.7927 22.4062 16.932V17.635C22.4062 17.7617 22.3619 17.8693 22.2732 17.958C22.1972 18.034 22.0959 18.072 21.9692 18.072H15.9272V22.385H22.5392C22.6785 22.385 22.7862 22.423 22.8622 22.499C22.9382 22.575 22.9762 22.6827 22.9762 22.822V23.563C22.9762 23.6897 22.9319 23.7973 22.8432 23.886C22.7672 23.962 22.6659 24 22.5392 24H14.5402ZM26.0627 24C25.936 24 25.8283 23.962 25.7397 23.886C25.6637 23.7973 25.6257 23.6897 25.6257 23.563V11.137C25.6257 11.0103 25.6637 10.909 25.7397 10.833C25.8283 10.7443 25.936 10.7 26.0627 10.7H27.0697C27.1963 10.7 27.2977 10.7443 27.3737 10.833C27.4623 10.909 27.5067 11.0103 27.5067 11.137V22.347H33.8147C33.954 22.347 34.0617 22.3913 34.1377 22.48C34.2263 22.556 34.2707 22.6637 34.2707 22.803V23.563C34.2707 23.6897 34.2263 23.7973 34.1377 23.886C34.049 23.962 33.9413 24 33.8147 24H26.0627ZM40.9342 24.19C39.2748 24.19 37.9892 23.7593 37.0772 22.898C36.1778 22.024 35.7028 20.713 35.6522 18.965C35.6395 18.585 35.6332 18.0467 35.6332 17.35C35.6332 16.6533 35.6395 16.1213 35.6522 15.754C35.7028 14.044 36.1968 12.7457 37.1342 11.859C38.0715 10.9597 39.3382 10.51 40.9342 10.51C42.5175 10.51 43.7778 10.9597 44.7152 11.859C45.6525 12.7457 46.1465 14.044 46.1972 15.754C46.2225 16.4887 46.2352 17.0207 46.2352 17.35C46.2352 17.6667 46.2225 18.205 46.1972 18.965C46.1465 20.713 45.6652 22.024 44.7532 22.898C43.8538 23.7593 42.5808 24.19 40.9342 24.19ZM40.9342 22.575C41.9348 22.575 42.7328 22.271 43.3282 21.663C43.9235 21.055 44.2465 20.124 44.2972 18.87C44.3225 18.11 44.3352 17.6033 44.3352 17.35C44.3352 17.0713 44.3225 16.5647 44.2972 15.83C44.2465 14.576 43.9172 13.645 43.3092 13.037C42.7138 12.429 41.9222 12.125 40.9342 12.125C39.9335 12.125 39.1292 12.429 38.5212 13.037C37.9258 13.645 37.6028 14.576 37.5522 15.83C37.5395 16.1973 37.5332 16.704 37.5332 17.35C37.5332 17.9833 37.5395 18.49 37.5522 18.87C37.6028 20.124 37.9258 21.055 38.5212 21.663C39.1292 22.271 39.9335 22.575 40.9342 22.575ZM53.7926 24.19C52.0952 24.19 50.8032 23.734 49.9166 22.822C49.0426 21.91 48.5739 20.6497 48.5106 19.041C48.4979 18.699 48.4916 18.1417 48.4916 17.369C48.4916 16.5837 48.4979 16.0137 48.5106 15.659C48.5739 14.063 49.0489 12.809 49.9356 11.897C50.8222 10.9723 52.1079 10.51 53.7926 10.51C54.9199 10.51 55.8762 10.7127 56.6616 11.118C57.4469 11.5107 58.0422 12.03 58.4476 12.676C58.8529 13.322 59.0746 14.0123 59.1126 14.747V14.785C59.1126 14.8863 59.0682 14.975 58.9796 15.051C58.9036 15.1143 58.8149 15.146 58.7136 15.146H57.6686C57.4152 15.146 57.2569 15.0003 57.1936 14.709C56.9782 13.759 56.5919 13.094 56.0346 12.714C55.4772 12.3213 54.7299 12.125 53.7926 12.125C51.6139 12.125 50.4866 13.3347 50.4106 15.754C50.3979 16.096 50.3916 16.6217 50.3916 17.331C50.3916 18.0403 50.3979 18.5787 50.4106 18.946C50.4866 21.3653 51.6139 22.575 53.7926 22.575C54.7299 22.575 55.4772 22.385 56.0346 22.005C56.6046 21.6123 56.9909 20.941 57.1936 19.991C57.2316 19.8263 57.2886 19.7123 57.3646 19.649C57.4406 19.5857 57.5419 19.554 57.6686 19.554H58.7136C58.8276 19.554 58.9226 19.592 58.9986 19.668C59.0872 19.7313 59.1252 19.82 59.1126 19.934C59.0746 20.6813 58.8529 21.378 58.4476 22.024C58.0422 22.67 57.4469 23.1957 56.6616 23.601C55.8762 23.9937 54.9199 24.19 53.7926 24.19ZM60.636 24C60.5346 24 60.446 23.962 60.37 23.886C60.294 23.81 60.256 23.7213 60.256 23.62C60.256 23.5187 60.2623 23.449 60.275 23.411L64.987 11.118C65.0883 10.8393 65.291 10.7 65.595 10.7H66.887C67.191 10.7 67.3936 10.8393 67.495 11.118L72.188 23.411L72.226 23.62C72.226 23.7213 72.188 23.81 72.112 23.886C72.036 23.962 71.9473 24 71.846 24H70.877C70.7376 24 70.63 23.9683 70.554 23.905C70.478 23.829 70.4273 23.753 70.402 23.677L69.357 20.979H63.125L62.08 23.677C62.0546 23.753 61.9976 23.829 61.909 23.905C61.833 23.9683 61.7316 24 61.605 24H60.636ZM68.806 19.345L66.241 12.6L63.676 19.345H68.806ZM76.1913 24C76.0647 24 75.957 23.962 75.8683 23.886C75.7923 23.7973 75.7543 23.6897 75.7543 23.563V12.391H72.1063C71.9797 12.391 71.872 12.353 71.7833 12.277C71.7073 12.1883 71.6693 12.0807 71.6693 11.954V11.156C71.6693 11.0293 71.7073 10.9217 71.7833 10.833C71.872 10.7443 71.9797 10.7 72.1063 10.7H81.2643C81.4037 10.7 81.5113 10.7443 81.5873 10.833C81.676 10.909 81.7203 11.0167 81.7203 11.156V11.954C81.7203 12.0807 81.676 12.1883 81.5873 12.277C81.4987 12.353 81.391 12.391 81.2643 12.391H77.6353V23.563C77.6353 23.6897 77.591 23.7973 77.5023 23.886C77.4137 23.962 77.306 24 77.1793 24H76.1913ZM84.2873 24C84.1606 24 84.0529 23.962 83.9643 23.886C83.8883 23.7973 83.8503 23.6897 83.8503 23.563V11.156C83.8503 11.0167 83.8883 10.909 83.9643 10.833C84.0529 10.7443 84.1606 10.7 84.2873 10.7H92.1343C92.2609 10.7 92.3623 10.7443 92.4383 10.833C92.5269 10.909 92.5713 11.0167 92.5713 11.156V11.878C92.5713 12.0047 92.5333 12.1123 92.4573 12.201C92.3813 12.277 92.2736 12.315 92.1343 12.315H85.6743V16.476H91.7163C91.8429 16.476 91.9443 16.5203 92.0203 16.609C92.1089 16.685 92.1533 16.7927 92.1533 16.932V17.635C92.1533 17.7617 92.1089 17.8693 92.0203 17.958C91.9443 18.034 91.8429 18.072 91.7163 18.072H85.6743V22.385H92.2863C92.4256 22.385 92.5333 22.423 92.6093 22.499C92.6853 22.575 92.7233 22.6827 92.7233 22.822V23.563C92.7233 23.6897 92.6789 23.7973 92.5903 23.886C92.5143 23.962 92.4129 24 92.2863 24H84.2873Z" fill="#222222"/>
<circle cx="116.5" cy="16.5" r="16.5" fill="#FF6965"/>
<path d="M107.647 22C107.547 22 107.462 21.97 107.392 21.91C107.332 21.84 107.302 21.755 107.302 21.655V11.86C107.302 11.75 107.332 11.665 107.392 11.605C107.462 11.535 107.547 11.5 107.647 11.5H108.397C108.557 11.5 108.687 11.58 108.787 11.74L111.952 17.8L115.147 11.74C115.167 11.68 115.207 11.625 115.267 11.575C115.337 11.525 115.422 11.5 115.522 11.5H116.257C116.367 11.5 116.452 11.535 116.512 11.605C116.582 11.665 116.617 11.75 116.617 11.86V21.655C116.617 21.755 116.582 21.84 116.512 21.91C116.442 21.97 116.357 22 116.257 22H115.522C115.422 22 115.337 21.97 115.267 21.91C115.207 21.84 115.177 21.755 115.177 21.655V14.275L112.672 19.165C112.572 19.375 112.412 19.48 112.192 19.48H111.727C111.507 19.48 111.347 19.375 111.247 19.165L108.727 14.275V21.655C108.727 21.755 108.692 21.84 108.622 21.91C108.562 21.97 108.482 22 108.382 22H107.647ZM119.556 22C119.456 22 119.371 21.97 119.301 21.91C119.241 21.84 119.211 21.755 119.211 21.655V11.86C119.211 11.75 119.241 11.665 119.301 11.605C119.371 11.535 119.456 11.5 119.556 11.5H125.751C125.851 11.5 125.931 11.535 125.991 11.605C126.061 11.665 126.096 11.75 126.096 11.86V12.43C126.096 12.53 126.066 12.615 126.006 12.685C125.946 12.745 125.861 12.775 125.751 12.775H120.651V16.06H125.421C125.521 16.06 125.601 16.095 125.661 16.165C125.731 16.225 125.766 16.31 125.766 16.42V16.975C125.766 17.075 125.731 17.16 125.661 17.23C125.601 17.29 125.521 17.32 125.421 17.32H120.651V20.725H125.871C125.981 20.725 126.066 20.755 126.126 20.815C126.186 20.875 126.216 20.96 126.216 21.07V21.655C126.216 21.755 126.181 21.84 126.111 21.91C126.051 21.97 125.971 22 125.871 22H119.556Z" fill="white"/>
</svg>
