<svg width="380" height="380" viewBox="0 0 380 380" fill="none" xmlns="http://www.w3.org/2000/svg">
<g filter="url(#filter0_d_16_198)">
<path fill-rule="evenodd" clip-rule="evenodd" d="M190 245C223.137 245 250 218.137 250 185C250 151.863 223.137 125 190 125C156.863 125 130 151.863 130 185C130 218.137 156.863 245 190 245Z" fill="white"/>
</g>
<path fill-rule="evenodd" clip-rule="evenodd" d="M184.12 201.175C183.484 201.572 182.75 201.783 182 201.783C179.791 201.783 178 199.992 178 197.783V172.217C178 171.467 178.211 170.733 178.608 170.097C179.779 168.224 182.247 167.654 184.12 168.825L204.573 181.608C205.088 181.93 205.523 182.365 205.845 182.88C207.016 184.753 206.446 187.221 204.573 188.392L184.12 201.175Z" fill="black"/>
<mask id="mask0_16_198" style="mask-type:luminance" maskUnits="userSpaceOnUse" x="178" y="168" width="29" height="34">
<path fill-rule="evenodd" clip-rule="evenodd" d="M184.12 201.175C183.484 201.572 182.75 201.783 182 201.783C179.791 201.783 178 199.992 178 197.783V172.217C178 171.467 178.211 170.733 178.608 170.097C179.779 168.224 182.247 167.654 184.12 168.825L204.573 181.608C205.088 181.93 205.523 182.365 205.845 182.88C207.016 184.753 206.446 187.221 204.573 188.392L184.12 201.175Z" fill="white"/>
</mask>
<g mask="url(#mask0_16_198)">
<rect x="170" y="165" width="40" height="40" fill="#FF6965"/>
</g>
<defs>
<filter id="filter0_d_16_198" x="0" y="0" width="380" height="380" filterUnits="userSpaceOnUse" color-interpolation-filters="sRGB">
<feFlood flood-opacity="0" result="BackgroundImageFix"/>
<feColorMatrix in="SourceAlpha" type="matrix" values="0 0 0 0 0 0 0 0 0 0 0 0 0 0 0 0 0 0 127 0" result="hardAlpha"/>
<feOffset dy="5"/>
<feGaussianBlur stdDeviation="65"/>
<feColorMatrix type="matrix" values="0 0 0 0 0 0 0 0 0 0 0 0 0 0 0 0 0 0 0.0788625 0"/>
<feBlend mode="normal" in2="BackgroundImageFix" result="effect1_dropShadow_16_198"/>
<feBlend mode="normal" in="SourceGraphic" in2="effect1_dropShadow_16_198" result="shape"/>
</filter>
</defs>
</svg>
